# xmcd
#
# Track frame offsets:
#	150
#	7953
#	14477
#	26571
#	39795
#	61021
#	78006
#	107853
#	128514
#	143604
#	165707
#	182938
#	201681
#
# Disc length: 2972 seconds
#
# Revision: 1
# Processed by: cddbd v1.5.2PL0 Copyright (c) Steve Scherf et al.
# Submitted via: audiograbber 1.83.01
#
DISCID=9e0b9a0d
DTITLE=Resurrecturis - Non voglio morire
DYEAR=2009
DGENRE=Death Metal
TTITLE0=The Origin
TTITLE1=Prologue
TTITLE2=Fuck Face
TTITLE3=Corpses Forever
TTITLE4=The Artist
TTITLE5=Save my Anger
TTITLE6=Calling Our Names
TTITLE7=After The Show
TTITLE8=The Fracture
TTITLE9=Always From The Flock
TTITLE10=Where Shall I Go From Here?
TTITLE11=Walk Through Fire
TTITLE12=In Retrospective
EXTD=
EXTT0=
EXTT1=
EXTT2=
EXTT3=
EXTT4=
EXTT5=
EXTT6=
EXTT7=
EXTT8=
EXTT9=
EXTT10=
EXTT11=
EXTT12=
PLAYORDER=
